<svg width="121" height="38" viewBox="0 0 121 38" fill="none" xmlns="http://www.w3.org/2000/svg">
<path d="M48.2683 30.5678V6.70325H61.6063V9.77634H51.5371V17.393H61.377V20.4661H51.5371V27.4947H62.2269V30.5678H48.2683Z" fill="#272525"/>
<path d="M71.837 30.9602C67.0972 30.9602 64.7103 27.7564 64.7103 23.7679C64.7103 19.9761 67.4236 16.5762 71.5757 16.5762C74.6809 16.5762 76.7079 18.3745 77.6233 19.7474L75.3676 21.4471C74.6483 20.5317 73.5367 19.4531 71.6083 19.4531C69.2549 19.4531 67.8815 21.6107 67.8815 23.6373C67.8815 26.4811 69.4511 28.0833 71.805 28.0833C73.4066 28.0833 74.6814 27.2334 75.7605 25.9586L77.8851 27.6583C76.6103 29.4236 74.322 30.9602 71.8375 30.9602H71.837Z" fill="#272525"/>
<path d="M89.3256 30.5678V22.297C89.3256 20.3029 88.149 19.4531 86.8411 19.4531C85.1409 19.4531 83.6699 20.7604 83.6699 23.2779V30.5678H80.5648V6.70325H83.6699V18.6027C84.3566 17.5236 85.762 16.5757 87.4623 16.5757C90.2736 16.5757 92.4313 18.2759 92.4313 21.7084V30.5678H89.3256Z" fill="#272525"/>
<path d="M102.139 30.9602C98.1186 30.9602 95.2086 28.1158 95.2086 23.6698C95.2086 20.0086 97.8243 16.5757 102.074 16.5757C106.324 16.5757 109.135 19.845 109.135 23.5387C109.135 27.6578 106.291 30.9602 102.139 30.9602ZM102.074 19.4531C99.7532 19.4531 98.3793 21.349 98.3793 23.6698C98.3793 26.3831 99.7527 28.0833 102.041 28.0833C104.82 28.0833 105.964 26.1874 105.964 23.7354C105.964 21.0877 104.46 19.4531 102.074 19.4531Z" fill="#272525"/>
<path d="M116.293 30.8946C114.397 30.8946 112.762 30.2735 111.389 29.1618L112.926 26.841C114.07 27.7564 115.377 28.1158 116.13 28.1158C117.012 28.1158 117.895 27.7559 117.895 26.9391C117.895 25.9912 117.045 25.5007 115.868 24.9126C114.103 24.0627 111.749 23.1473 111.749 20.401C111.749 18.2764 113.776 16.5762 116.26 16.5762C117.568 16.5762 119.203 16.8049 120.641 17.7859L119.366 20.2379C118.385 19.5512 117.175 19.2899 116.391 19.2899C115.672 19.2899 114.854 19.4861 114.854 20.336C114.854 21.0552 115.835 21.5126 117.045 22.1012C118.81 22.9836 121 24.1278 121 26.7759C121 29.0642 119.039 30.8946 116.293 30.8946Z" fill="#272525"/>
<path d="M19.0008 37.91C8.5484 37.91 0.0452881 29.4069 0.0452881 18.955C0.0452881 8.50311 8.5484 0 19.0008 0C29.4532 0 37.9558 8.50311 37.9558 18.955C37.9558 29.4069 29.4527 37.91 19.0008 37.91ZM19.0008 2.28729C9.80997 2.28729 2.33308 9.76417 2.33308 18.955C2.33308 28.1458 9.81048 35.6227 19.0008 35.6227C28.1911 35.6227 35.668 28.1458 35.668 18.955C35.668 9.76417 28.1911 2.28729 19.0008 2.28729Z" fill="black"/>
<path d="M19.0008 3.70129H19.0003C18.1517 3.70129 17.4637 4.38923 17.4637 5.23784V32.9796C17.4637 33.8282 18.1517 34.5161 19.0003 34.5161H19.0008C19.8494 34.5161 20.5373 33.8282 20.5373 32.9796V5.23784C20.5373 4.38923 19.8494 3.70129 19.0008 3.70129Z" fill="black"/>
<path d="M14.4185 4.39404H14.418C13.5694 4.39404 12.8815 5.08198 12.8815 5.93059V32.2867C12.8815 33.1354 13.5694 33.8233 14.418 33.8233H14.4185C15.2671 33.8233 15.9551 33.1354 15.9551 32.2867V5.93059C15.9551 5.08198 15.2671 4.39404 14.4185 4.39404Z" fill="black"/>
<path d="M9.7093 7.21448H9.70879C8.86018 7.21448 8.17224 7.90241 8.17224 8.75103V29.4657C8.17224 30.3143 8.86018 31.0023 9.70879 31.0023H9.7093C10.5579 31.0023 11.2458 30.3143 11.2458 29.4657V8.75103C11.2458 7.90241 10.5579 7.21448 9.7093 7.21448Z" fill="black"/>
<path d="M10.0996 18.8319V18.8313C10.0996 17.9827 9.41167 17.2948 8.56306 17.2948H1.53652C0.687904 17.2948 -3.24249e-05 17.9827 -3.24249e-05 18.8313V18.8319C-3.24249e-05 19.6805 0.687904 20.3684 1.53652 20.3684H8.56306C9.41167 20.3684 10.0996 19.6805 10.0996 18.8319Z" fill="black"/>
<path d="M23.5794 33.8232H23.5799C24.4285 33.8232 25.1165 33.1353 25.1165 32.2867L25.1165 5.93054C25.1165 5.08193 24.4285 4.394 23.5799 4.394H23.5794C22.7308 4.394 22.0428 5.08193 22.0428 5.93054L22.0428 32.2867C22.0428 33.1353 22.7308 33.8232 23.5794 33.8232Z" fill="black"/>
<path d="M28.2886 31.0028H28.2891C29.1377 31.0028 29.8257 30.3149 29.8257 29.4663L29.8257 8.75157C29.8257 7.90296 29.1377 7.21503 28.2891 7.21503H28.2886C27.44 7.21503 26.7521 7.90296 26.7521 8.75157L26.7521 29.4663C26.7521 30.3149 27.44 31.0028 28.2886 31.0028Z" fill="black"/>
<path d="M27.8983 19.3854V19.3859C27.8983 20.2345 28.5863 20.9225 29.4349 20.9225H36.3547C37.2033 20.9225 37.8912 20.2345 37.8912 19.3859V19.3854C37.8912 18.5368 37.2033 17.8489 36.3547 17.8489H29.4349C28.5863 17.8489 27.8983 18.5368 27.8983 19.3854Z" fill="black"/>
</svg>
